<svg xmlns="http://www.w3.org/2000/svg" version="1.1" xmlns:xlink="http://www.w3.org/1999/xlink" viewBox="0 0 200 200" width="200" height="200"><metadata><rdf:RDF xmlns:rdf="http://www.w3.org/1999/02/22-rdf-syntax-ns#" xmlns:dc="http://purl.org/dc/elements/1.1/"><rdf:Description><dc:creator>RealFaviconGenerator</dc:creator><dc:source>https://realfavicongenerator.net</dc:source></rdf:Description></rdf:RDF></metadata><rect width="200" height="200" fill="url('#gradient')"></rect><defs><linearGradient id="gradient" gradientTransform="rotate(53 0.5 0.5)"><stop offset="0%" stop-color="#cefa39"></stop><stop offset="100%" stop-color="#4feb2f"></stop></linearGradient></defs><g><g fill="#5bab32" transform="matrix(4.783804827407216,0,0,4.783804827407216,7.00435963151611,134.017108836299)" stroke="#5ed03e" stroke-width="1.15"><path d="M8.41-3.78L8.41-3.78Q8.41-4.53 7.88-4.95Q7.34-5.37 6.01-5.82Q4.67-6.27 3.82-6.69L3.82-6.69Q1.05-8.05 1.05-10.42L1.05-10.42Q1.05-11.60 1.74-12.50Q2.43-13.41 3.69-13.91Q4.95-14.41 6.52-14.41L6.52-14.41Q8.06-14.41 9.27-13.87Q10.49-13.32 11.16-12.31Q11.84-11.30 11.84-10L11.84-10L8.42-10Q8.42-10.87 7.89-11.35Q7.35-11.83 6.45-11.83L6.45-11.83Q5.53-11.83 5.00-11.42Q4.46-11.02 4.46-10.39L4.46-10.39Q4.46-9.84 5.05-9.40Q5.63-8.96 7.11-8.48Q8.58-8.01 9.53-7.46L9.53-7.46Q11.84-6.13 11.84-3.80L11.84-3.80Q11.84-1.93 10.43-0.87Q9.02 0.20 6.57 0.20L6.57 0.20Q4.84 0.20 3.44-0.42Q2.04-1.04 1.33-2.12Q0.63-3.20 0.63-4.61L0.63-4.61L4.06-4.61Q4.06-3.47 4.65-2.92Q5.24-2.38 6.57-2.38L6.57-2.38Q7.42-2.38 7.92-2.75Q8.41-3.12 8.41-3.78ZM19.21-4.82L17.02-4.82L17.02 0L13.59 0L13.59-14.22L19.27-14.22Q20.90-14.22 22.15-13.62Q23.41-13.02 24.10-11.91Q24.79-10.80 24.79-9.39L24.79-9.39Q24.79-7.31 23.30-6.07Q21.81-4.82 19.21-4.82L19.21-4.82ZM17.02-11.57L17.02-7.47L19.27-7.47Q20.26-7.47 20.79-7.97Q21.31-8.47 21.31-9.38L21.31-9.38Q21.31-10.37 20.77-10.97Q20.23-11.56 19.31-11.57L19.31-11.57L17.02-11.57ZM38.25-7.60L38.25-1.76Q37.46-0.88 35.94-0.34Q34.41 0.20 32.60 0.20L32.60 0.20Q29.80 0.20 28.13-1.51Q26.46-3.22 26.35-6.27L26.35-6.27L26.34-7.50Q26.34-9.60 27.08-11.17Q27.82-12.73 29.20-13.58Q30.59-14.42 32.40-14.42L32.40-14.42Q35.06-14.42 36.53-13.21Q38.00-11.99 38.24-9.58L38.24-9.58L34.94-9.58Q34.77-10.77 34.18-11.28Q33.59-11.79 32.52-11.79L32.52-11.79Q31.23-11.79 30.53-10.69Q29.82-9.60 29.81-7.57L29.81-7.57L29.81-6.71Q29.81-4.58 30.54-3.51Q31.27-2.44 32.83-2.44L32.83-2.44Q34.17-2.44 34.82-3.04L34.82-3.04L34.82-5.24L32.44-5.24L32.44-7.60L38.25-7.60Z"></path></g></g></svg>